<svg xmlns="http://www.w3.org/2000/svg" width="71" height="51" fill="none"><g clip-path="url(#a)"><mask id="b" width="71" height="51" x="0" y="0" maskUnits="userSpaceOnUse" style="mask-type:luminance"><path fill="#fff" d="M71 0H0v51h71V0Z"/></mask><g mask="url(#b)"><path fill="#fff" d="M61.255 34.601H71v-2.019h-7.653V26.95h6.937V24.93h-6.937v-4.628H71v-2.02h-9.745v16.32Zm-5.94 0h2.103V18.282h-2.103v16.32Zm-7.708-14.3c1.496 0 2.504 1.005 2.504 2.478 0 1.474-1.02 2.467-2.526 2.467H43.25v-4.945h4.358Zm5.356 14.3-6.775-7.499h1.615c2.57 0 4.412-1.878 4.412-4.377 0-2.5-1.865-4.443-4.531-4.443h-6.536v16.32h2.103v-7.806l6.97 7.805h2.742Zm-19.522-14.3c1.495 0 2.503 1.005 2.503 2.478 0 1.474-1.018 2.467-2.525 2.467h-4.336v-4.945h4.358Zm5.354 14.3-6.775-7.499h1.616c2.569 0 4.411-1.878 4.411-4.377 0-2.5-1.864-4.443-4.53-4.443H26.98v16.32h2.103v-7.806l6.97 7.805h2.742Zm-24.92 0h9.745v-2.019h-7.654V26.95h6.938V24.93h-6.938v-4.628h7.654v-2.02h-9.745v16.32ZM6.113 25.76h-4.01v-5.458h4.011c1.615 0 2.742 1.135 2.742 2.729s-1.127 2.73-2.742 2.73m.033-7.478H0v16.32h2.103v-6.823h4.043c2.84 0 4.813-1.998 4.813-4.749 0-2.751-1.973-4.749-4.813-4.749"/></g><path fill="#fff" d="M27.725 0v.744h1.892v5.265h.775V.744h1.892V0h-4.559Zm9.053 0v2.448h-2.822V0h-.774v6.01h.774V3.19h2.822V6.01h.775V0h-.775Zm2.203 0v6.01h3.588v-.744h-2.818V3.19h2.555v-.743h-2.554V.744h2.817V0h-3.588Z"/><mask id="c" width="71" height="51" x="0" y="0" maskUnits="userSpaceOnUse" style="mask-type:luminance"><path fill="#fff" d="M71 0H0v51h71V0Z"/></mask><g mask="url(#c)"><path fill="#fff" d="M51.936 46.965h-.581l-1.032 1.638-1.032-1.638h-.592l1.37 2.159v1.815h.501v-1.823l1.365-2.151Zm-5.408 2.464.586-1.417.586 1.417h-1.172Zm1.797 1.51h.544l-1.702-4.064h-.095l-1.702 4.064h.533l.422-1.018h1.579l.423 1.018h-.002Zm-4.592-.492h-1.08v-1.36h1.08c.399 0 .684.292.684.677a.667.667 0 0 1-.684.683Zm-.136-2.99c.326 0 .572.242.572.577a.555.555 0 0 1-.572.574h-.943v-1.15h.942Zm.662 1.292a.888.888 0 0 0 .423-.769c0-.585-.442-1.016-1.056-1.016h-1.481v3.975h1.573c.696 0 1.211-.493 1.211-1.168 0-.438-.248-.842-.67-1.023m-7.633 2.19H39v-.492h-1.863v-1.371h1.69v-.491h-1.69v-1.128H39v-.492h-2.373v3.975Zm-3.131 0h2.352v-.492h-1.84v-3.482h-.512v3.975Zm-2.542 0h.512v-3.482h1.25v-.492h-3.014v.492h1.252v3.483Zm-3.014-3.482c.364 0 .61.245.61.604 0 .36-.248.6-.614.6h-1.057v-1.204h1.061Zm1.304 3.483-1.65-1.827h.393c.626 0 1.075-.457 1.075-1.066 0-.608-.454-1.082-1.103-1.082h-1.592v3.975h.512v-1.901l1.698 1.9h.668Zm-3.88-3.975h-.508v2.587c0 .534-.393.951-.929.951s-.932-.417-.932-.951v-2.587h-.512v2.6c0 .814.602 1.436 1.446 1.436s1.434-.62 1.434-1.436v-2.6Zm-5.415 3.975h.513v-3.483h1.25v-.492h-3.014v.492h1.252v3.483Z"/></g></g><defs><clipPath id="a"><path fill="#fff" d="M0 0h71v51H0z"/></clipPath></defs></svg>